#Comment line ignore any data following # character 
#Hierarchical Translation and Rotation (.htr) file 
[Header]	
#Header keywords are followed by a single value 
FileType HTR		#Single word string
DataType HTRS		#Translation followed by rotation and scale data
FileVersion 1		#integer
NumSegments 84		#integer
NumFrames 2		#integer
DataFrameRate 30		#integer, data frame rate in this file
EulerRotationOrder ZYX
CalibrationUnits mm
RotationUnits Degrees
GlobalAxisofGravity Y
BoneLengthAxis Y
ScaleFactor 1.00
[SegmentNames&Hierarchy]
#CHILD	PARENT
MASTER GLOBAL
root MASTER
chest root
L_mid_tent01 root
R_mid_tent01 root
spine01 root
Bip01_Neck chest
L_humerus chest
R_humerus chest
weapon_bone chest
Bip01_Head Bip01_Neck
eye_left_bone Bip01_Head
eye_right_bone Bip01_Head
L_forearm L_humerus
L_front_hand L_forearm
L_weapon_bone L_forearm
L_front_hand01_01 L_front_hand
L_front_hand02_01 L_front_hand
L_front_hand03_01 L_front_hand
L_front_hand01_02 L_front_hand01_01
L_front_hand02_02 L_front_hand02_01
L_front_hand03_02 L_front_hand03_01
R_forearm R_humerus
R_front_hand R_forearm
R_weapon_bone R_forearm
R_front_hand01_01 R_front_hand
R_front_hand02_01 R_front_hand
R_front_hand03_01 R_front_hand
R_front_hand01_02 R_front_hand01_01
R_front_hand02_02 R_front_hand02_01
R_front_hand03_02 R_front_hand03_01
null_rope01_connect L_mid_tent01
Rope1_Seg01 null_rope01_connect
Rope1_Seg02 Rope1_Seg01
Rope1_Seg03 Rope1_Seg02
Rope1_Seg04 Rope1_Seg03
Rope1_Seg05 Rope1_Seg04
Rope1_Seg06 Rope1_Seg05
Rope1_Seg07 Rope1_Seg06
Rope1_Seg09 Rope1_Seg07
L_mid_hand01 Rope1_Seg09
L_mid_hand02 Rope1_Seg09
L_mid_hand03 Rope1_Seg09
null_rope02_connect R_mid_tent01
Rope2_Seg01 null_rope02_connect
Rope2_Seg02 Rope2_Seg01
Rope2_Seg03 Rope2_Seg02
Rope2_Seg04 Rope2_Seg03
Rope2_Seg05 Rope2_Seg04
Rope2_Seg06 Rope2_Seg05
Rope2_Seg07 Rope2_Seg06
Rope2_Seg09 Rope2_Seg07
R_mid_hand01 Rope2_Seg09
R_mid_hand02 Rope2_Seg09
R_mid_hand03 Rope2_Seg09
spine02 spine01
spine03 spine02
pelvis spine03
null_rope03_connect pelvis
null_rope04_connect pelvis
Rope3_Seg01 null_rope03_connect
Rope3_Seg02 Rope3_Seg01
Rope3_Seg03 Rope3_Seg02
Rope3_Seg04 Rope3_Seg03
Rope3_Seg05 Rope3_Seg04
Rope3_Seg06 Rope3_Seg05
Rope3_Seg07 Rope3_Seg06
Rope3_Seg08 Rope3_Seg07
Rope3_Seg09 Rope3_Seg08
R_rear_hand01 Rope3_Seg09
R_rear_hand02 Rope3_Seg09
R_rear_hand03 Rope3_Seg09
Rope4_Seg01 null_rope04_connect
Rope4_Seg02 Rope4_Seg01
Rope4_Seg03 Rope4_Seg02
Rope4_Seg04 Rope4_Seg03
Rope4_Seg05 Rope4_Seg04
Rope4_Seg06 Rope4_Seg05
Rope4_Seg07 Rope4_Seg06
Rope4_Seg08 Rope4_Seg07
Rope4_Seg09 Rope4_Seg08
L_rear_hand01 Rope4_Seg09
L_rear_hand02 Rope4_Seg09
L_rear_hand03 Rope4_Seg09
[BasePosition]
#SegmentName Tx, Ty, Tz, Rx, Ry, Rz, BoneLength
MASTER 0.000000 0.000000 0.000000 -90.000000 0.000000 0.000000 10.000000 
root 0.000000 0.000000 0.000000 0.000000 0.000000 0.000000 10.000000 
chest 0.000000 0.000000 0.000000 0.000000 0.000000 0.000000 10.000000 
L_mid_tent01 0.000000 0.000000 0.000000 0.000000 0.000000 0.000000 10.000000 
R_mid_tent01 0.000000 0.000000 0.000000 0.000000 0.000000 0.000000 10.000000 
spine01 0.000000 0.000000 0.000000 0.000000 0.000000 0.000000 10.000000 
Bip01_Neck 0.000000 0.000000 0.000000 0.000000 0.000000 0.000000 10.000000 
L_humerus 0.000000 0.000000 0.000000 0.000000 0.000000 0.000000 10.000000 
R_humerus 0.000000 0.000000 0.000000 0.000000 0.000000 0.000000 10.000000 
weapon_bone 0.000000 0.000000 0.000000 0.000000 0.000000 0.000000 10.000000 
Bip01_Head 0.000000 0.000000 0.000000 0.000000 0.000000 0.000000 10.000000 
eye_left_bone 0.000000 0.000000 0.000000 0.000000 0.000000 0.000000 10.000000 
eye_right_bone 0.000000 0.000000 0.000000 0.000000 0.000000 0.000000 10.000000 
L_forearm 0.000000 0.000000 0.000000 0.000000 0.000000 0.000000 10.000000 
L_front_hand 0.000000 0.000000 0.000000 0.000000 0.000000 0.000000 10.000000 
L_weapon_bone 0.000000 0.000000 0.000000 0.000000 0.000000 0.000000 10.000000 
L_front_hand01_01 0.000000 0.000000 0.000000 0.000000 0.000000 0.000000 10.000000 
L_front_hand02_01 0.000000 0.000000 0.000000 0.000000 0.000000 0.000000 10.000000 
L_front_hand03_01 0.000000 0.000000 0.000000 0.000000 0.000000 0.000000 10.000000 
L_front_hand01_02 0.000000 0.000000 0.000000 0.000000 0.000000 0.000000 10.000000 
L_front_hand02_02 0.000000 0.000000 0.000000 0.000000 0.000000 0.000000 10.000000 
L_front_hand03_02 0.000000 0.000000 0.000000 0.000000 0.000000 0.000000 10.000000 
R_forearm 0.000000 0.000000 0.000000 0.000000 0.000000 0.000000 10.000000 
R_front_hand 0.000000 0.000000 0.000000 0.000000 0.000000 0.000000 10.000000 
R_weapon_bone 0.000000 0.000000 0.000000 0.000000 0.000000 0.000000 10.000000 
R_front_hand01_01 0.000000 0.000000 0.000000 0.000000 0.000000 0.000000 10.000000 
R_front_hand02_01 0.000000 0.000000 0.000000 0.000000 0.000000 0.000000 10.000000 
R_front_hand03_01 0.000000 0.000000 0.000000 0.000000 0.000000 0.000000 10.000000 
R_front_hand01_02 0.000000 0.000000 0.000000 0.000000 0.000000 0.000000 10.000000 
R_front_hand02_02 0.000000 0.000000 0.000000 0.000000 0.000000 0.000000 10.000000 
R_front_hand03_02 0.000000 0.000000 0.000000 0.000000 0.000000 0.000000 10.000000 
null_rope01_connect 0.000000 0.000000 0.000000 0.000000 0.000000 0.000000 10.000000 
Rope1_Seg01 0.000000 0.000000 0.000000 0.000000 0.000000 0.000000 10.000000 
Rope1_Seg02 0.000000 0.000000 0.000000 0.000000 0.000000 0.000000 10.000000 
Rope1_Seg03 0.000000 0.000000 0.000000 0.000000 0.000000 0.000000 10.000000 
Rope1_Seg04 0.000000 0.000000 0.000000 0.000000 0.000000 0.000000 10.000000 
Rope1_Seg05 0.000000 0.000000 0.000000 0.000000 0.000000 0.000000 10.000000 
Rope1_Seg06 0.000000 0.000000 0.000000 0.000000 0.000000 0.000000 10.000000 
Rope1_Seg07 0.000000 0.000000 0.000000 0.000000 0.000000 0.000000 10.000000 
Rope1_Seg09 0.000000 0.000000 0.000000 0.000000 0.000000 0.000000 10.000000 
L_mid_hand01 0.000000 0.000000 0.000000 0.000000 0.000000 0.000000 10.000000 
L_mid_hand02 0.000000 0.000000 0.000000 0.000000 0.000000 0.000000 10.000000 
L_mid_hand03 0.000000 0.000000 0.000000 0.000000 0.000000 0.000000 10.000000 
null_rope02_connect 0.000000 0.000000 0.000000 0.000000 0.000000 0.000000 10.000000 
Rope2_Seg01 0.000000 0.000000 0.000000 0.000000 0.000000 0.000000 10.000000 
Rope2_Seg02 0.000000 0.000000 0.000000 0.000000 0.000000 0.000000 10.000000 
Rope2_Seg03 0.000000 0.000000 0.000000 0.000000 0.000000 0.000000 10.000000 
Rope2_Seg04 0.000000 0.000000 0.000000 0.000000 0.000000 0.000000 10.000000 
Rope2_Seg05 0.000000 0.000000 0.000000 0.000000 0.000000 0.000000 10.000000 
Rope2_Seg06 0.000000 0.000000 0.000000 0.000000 0.000000 0.000000 10.000000 
Rope2_Seg07 0.000000 0.000000 0.000000 0.000000 0.000000 0.000000 10.000000 
Rope2_Seg09 0.000000 0.000000 0.000000 0.000000 0.000000 0.000000 10.000000 
R_mid_hand01 0.000000 0.000000 0.000000 0.000000 0.000000 0.000000 10.000000 
R_mid_hand02 0.000000 0.000000 0.000000 0.000000 0.000000 0.000000 10.000000 
R_mid_hand03 0.000000 0.000000 0.000000 0.000000 0.000000 0.000000 10.000000 
spine02 0.000000 0.000000 0.000000 0.000000 0.000000 0.000000 10.000000 
spine03 0.000000 0.000000 0.000000 0.000000 0.000000 0.000000 10.000000 
pelvis 0.000000 0.000000 0.000000 0.000000 0.000000 0.000000 10.000000 
null_rope03_connect 0.000000 0.000000 0.000000 0.000000 0.000000 0.000000 10.000000 
null_rope04_connect 0.000000 0.000000 0.000000 0.000000 0.000000 0.000000 10.000000 
Rope3_Seg01 0.000000 0.000000 0.000000 0.000000 0.000000 0.000000 10.000000 
Rope3_Seg02 0.000000 0.000000 0.000000 0.000000 0.000000 0.000000 10.000000 
Rope3_Seg03 0.000000 0.000000 0.000000 0.000000 0.000000 0.000000 10.000000 
Rope3_Seg04 0.000000 0.000000 0.000000 0.000000 0.000000 0.000000 10.000000 
Rope3_Seg05 0.000000 0.000000 0.000000 0.000000 0.000000 0.000000 10.000000 
Rope3_Seg06 0.000000 0.000000 0.000000 0.000000 0.000000 0.000000 10.000000 
Rope3_Seg07 0.000000 0.000000 0.000000 0.000000 0.000000 0.000000 10.000000 
Rope3_Seg08 0.000000 0.000000 0.000000 0.000000 0.000000 0.000000 10.000000 
Rope3_Seg09 0.000000 0.000000 0.000000 0.000000 0.000000 0.000000 10.000000 
R_rear_hand01 0.000000 0.000000 0.000000 0.000000 0.000000 0.000000 10.000000 
R_rear_hand02 0.000000 0.000000 0.000000 0.000000 0.000000 0.000000 10.000000 
R_rear_hand03 0.000000 0.000000 0.000000 0.000000 0.000000 0.000000 10.000000 
Rope4_Seg01 0.000000 0.000000 0.000000 0.000000 0.000000 0.000000 10.000000 
Rope4_Seg02 0.000000 0.000000 0.000000 0.000000 0.000000 0.000000 10.000000 
Rope4_Seg03 0.000000 0.000000 0.000000 0.000000 0.000000 0.000000 10.000000 
Rope4_Seg04 0.000000 0.000000 0.000000 0.000000 0.000000 0.000000 10.000000 
Rope4_Seg05 0.000000 0.000000 0.000000 0.000000 0.000000 0.000000 10.000000 
Rope4_Seg06 0.000000 0.000000 0.000000 0.000000 0.000000 0.000000 10.000000 
Rope4_Seg07 0.000000 0.000000 0.000000 0.000000 0.000000 0.000000 10.000000 
Rope4_Seg08 0.000000 0.000000 0.000000 0.000000 0.000000 0.000000 10.000000 
Rope4_Seg09 0.000000 0.000000 0.000000 0.000000 0.000000 0.000000 10.000000 
L_rear_hand01 0.000000 0.000000 0.000000 0.000000 0.000000 0.000000 10.000000 
L_rear_hand02 0.000000 0.000000 0.000000 0.000000 0.000000 0.000000 10.000000 
L_rear_hand03 0.000000 0.000000 0.000000 0.000000 0.000000 0.000000 10.000000 
#Beginning of Data. Separated by tabs
#Fr	Tx	Ty	Tz	Rx	Ry	Rz	SF
[MASTER]
34 0.000000 0.000000 0.000000 0.001660 0.001660 0.001660 0.000000
35 0.000000 0.000000 0.000000 0.001660 0.001660 0.001660 0.000000
[root]
34 -54.218353 -7.592676 1432.823486 -87.793831 -28.554216 -87.506203 1433.869019
35 -50.275970 -13.365695 1465.131104 -88.196144 -28.309738 -87.782722 1466.054443
[chest]
34 -84.512650 -34.090519 0.000000 0.221717 -0.462157 -153.794876 91.129311
35 -84.512650 -34.090519 0.000000 0.032967 -0.352513 -156.008392 91.129311
[L_mid_tent01]
34 27.310671 22.171122 -249.988647 0.704815 32.506332 76.820030 252.451492
35 27.305162 22.174274 -249.953323 2.486004 34.668251 79.465714 252.416199
[R_mid_tent01]
34 23.228794 24.509907 226.238495 165.694046 -43.424480 81.900131 228.744751
35 23.228794 24.509907 226.238495 162.727661 -45.549717 85.341042 228.744751
[spine01]
34 -0.361383 -0.195265 0.000000 0.001907 0.001369 18.643761 0.410763
35 -0.361383 -0.195265 0.000000 0.001905 0.001372 18.464979 0.410763
[Bip01_Neck]
34 165.484543 71.581718 0.000119 175.896118 1.177290 24.871183 180.302734
35 165.484543 71.581718 0.000119 175.896118 1.177290 24.871183 180.302734
[L_humerus]
34 -13.983130 -135.272980 -120.471481 -179.946594 5.156703 -115.723938 181.680161
35 -13.983130 -135.272980 -120.471481 179.840149 5.591931 -120.325134 181.680161
[R_humerus]
34 -13.983309 -135.273102 125.287651 -178.999084 -1.256039 -108.426262 184.909012
35 -13.983309 -135.273102 125.287651 -179.329636 -1.413093 -115.134560 184.909012
[weapon_bone]
34 235.964890 -300.705902 0.000000 0.000000 -89.951546 -128.212341 382.234833
35 235.964890 -300.705902 0.000000 0.000000 -89.951546 -128.212341 382.234833
[Bip01_Head]
34 102.819756 23.735626 5.410229 3.150732 3.423701 -20.839092 105.662453
35 102.819756 23.735632 5.410224 3.150732 3.423702 -20.839094 105.662453
[eye_left_bone]
34 -24.626970 125.451866 -64.772606 0.000000 -90.000000 -99.840431 143.318359
35 -24.626970 125.451866 -64.772606 0.000000 -90.000000 -99.840431 143.318359
[eye_right_bone]
34 -24.626970 125.451866 64.327362 0.000000 -89.960434 80.159386 143.117676
35 -24.626970 125.451866 64.327362 0.000000 -89.960434 80.159386 143.117676
[L_forearm]
34 322.776093 0.000000 -0.000119 0.000301 0.002328 -75.253609 322.776093
35 322.776093 0.000000 -0.000119 0.000356 0.002320 -72.542961 322.776093
[L_front_hand]
34 241.149185 -0.042021 -3.300071 -177.817810 0.618996 -97.339294 241.171753
35 241.149185 -0.042021 -3.300071 -177.801376 0.562349 -95.816307 241.171753
[L_weapon_bone]
34 156.183838 0.000000 0.000000 0.001904 0.001373 18.427586 156.183838
35 156.183838 0.000000 0.000000 0.001886 0.001397 16.937901 156.183838
[L_front_hand01_01]
34 86.095154 20.947098 -0.655860 0.405585 -0.442306 -4.620490 88.609184
35 86.095154 20.947098 -0.655860 0.405585 -0.442306 -4.620490 88.609184
[L_front_hand02_01]
34 86.935165 -11.437475 24.513514 116.959450 3.630817 1.495453 91.046425
35 86.935165 -11.437475 24.513514 116.959450 3.630817 1.495453 91.046425
[L_front_hand03_01]
34 86.637497 -14.123976 -20.424902 -118.420097 -4.656303 -0.152527 90.126129
35 86.637497 -14.123976 -20.424902 -118.420097 -4.656303 -0.152527 90.126129
[L_front_hand01_02]
34 71.020905 -0.000179 0.000030 0.001534 0.001777 -8.378850 71.020905
35 71.020905 -0.000179 0.000030 0.001534 0.001777 -8.378851 71.020905
[L_front_hand02_02]
34 71.020927 -0.000119 0.000060 0.001534 0.001777 -8.378850 71.020927
35 71.020927 -0.000119 0.000060 0.001534 0.001777 -8.378851 71.020927
[L_front_hand03_02]
34 71.020905 -0.000060 0.000060 0.001534 0.001777 -8.378850 71.020905
35 71.020905 -0.000060 0.000060 0.001534 0.001777 -8.378851 71.020905
[R_forearm]
34 322.776428 -0.000060 0.000030 0.202917 -0.062575 -73.398315 322.776428
35 322.776428 -0.000060 0.000030 0.201085 -0.066930 -72.330444 322.776428
[R_front_hand]
34 238.847015 -0.006795 2.210259 -1.674885 -0.425709 -93.009354 238.857239
35 238.847015 -0.006795 2.210259 -1.670109 -0.443348 -93.616982 238.857239
[R_weapon_bone]
34 155.664093 0.002503 -0.000030 0.003349 0.001527 -102.626625 155.664078
35 155.664093 0.002503 -0.000030 0.003363 0.001497 -101.596489 155.664078
[R_front_hand01_01]
34 87.624611 14.231146 22.918642 -116.960213 3.496675 -1.324139 91.683487
35 87.624611 14.231146 22.918642 -116.960213 3.496675 -1.324139 91.683487
[R_front_hand02_01]
34 89.356956 14.367283 -19.491137 118.419647 -4.257089 0.609827 92.579636
35 89.356956 14.367283 -19.491137 118.419647 -4.257089 0.609827 92.579636
[R_front_hand03_01]
34 87.286232 -22.307278 -0.143439 -0.387970 -0.231462 4.232001 90.091743
35 87.286232 -22.307278 -0.143439 -0.387970 -0.231462 4.232001 90.091743
[R_front_hand01_02]
34 71.020905 0.000060 0.000119 0.001777 0.001534 8.377220 71.020905
35 71.020905 0.000060 0.000119 0.001777 0.001534 8.377220 71.020905
[R_front_hand02_02]
34 71.020844 -0.000030 -0.000119 0.001777 0.001534 8.377220 71.020836
35 71.020844 -0.000030 -0.000119 0.001777 0.001534 8.377220 71.020836
[R_front_hand03_02]
34 71.020905 0.000000 0.000030 0.001777 0.001534 8.377220 71.020905
35 71.020905 0.000000 0.000030 0.001777 0.001534 8.377220 71.020905
[null_rope01_connect]
34 328.732483 0.000000 -0.000238 -139.268417 -61.300251 -178.464981 328.732483
35 328.732483 0.000000 -0.000238 -138.666046 -58.499840 178.608063 328.732483
[Rope1_Seg01]
34 0.000000 0.000000 0.000000 111.897530 36.578068 138.309708 0.000000
35 0.000000 0.000000 0.000000 110.144356 41.367561 134.665070 0.000000
[Rope1_Seg02]
34 139.999863 -0.000179 0.000000 -1.090090 -15.785457 6.102385 139.999863
35 139.999863 -0.000179 0.000000 -0.751957 -12.578791 5.928581 139.999863
[Rope1_Seg03]
34 139.999924 0.000060 -0.000060 -4.516917 -19.596121 2.932020 139.999924
35 139.999924 0.000060 -0.000060 -3.331989 -16.999840 4.687994 139.999924
[Rope1_Seg04]
34 139.999924 -0.000060 -0.000119 -5.076312 -15.885118 11.081203 139.999924
35 139.999924 -0.000060 -0.000119 -5.584685 -17.029942 10.970038 139.999924
[Rope1_Seg05]
34 139.999832 0.000119 -0.000060 4.152572 -6.752166 13.032776 139.999832
35 139.999832 0.000119 -0.000060 3.160414 -7.087040 12.631777 139.999832
[Rope1_Seg06]
34 139.999954 0.000119 -0.000060 1.613767 -3.349302 5.166818 139.999954
35 139.999954 0.000119 -0.000060 1.247506 -3.359958 4.969202 139.999954
[Rope1_Seg07]
34 139.999985 0.000060 0.000000 1.300900 -1.928249 3.066881 139.999985
35 139.999985 0.000060 0.000000 0.863445 -1.954338 2.851278 139.999985
[Rope1_Seg09]
34 121.602913 0.000119 -0.000089 -89.793175 -1.359789 0.847147 121.602913
35 121.602913 0.000119 -0.000089 -89.793175 -1.359789 0.847147 121.602913
[L_mid_hand01]
34 103.859421 1.038730 8.195221 104.352036 0.341479 -0.444583 104.187431
35 103.859421 1.038730 8.195221 104.352036 0.341479 -0.444583 104.187431
[L_mid_hand02]
34 105.572853 -4.139662 -10.864139 -135.608444 3.905687 -3.381056 106.211075
35 105.572853 -4.139662 -10.864139 -135.608444 3.905687 -3.381056 106.211075
[L_mid_hand03]
34 104.641464 17.579376 -3.913581 -18.761518 -0.324361 2.942912 106.179977
35 104.641464 17.579376 -3.913581 -18.761518 -0.324361 2.942912 106.179977
[null_rope02_connect]
34 328.732849 0.000179 -0.000119 -122.761490 40.701103 15.034042 328.732849
35 328.732849 0.000179 -0.000119 -123.223526 38.527344 16.710548 328.732849
[Rope2_Seg01]
34 0.000076 0.000111 0.000153 -67.020882 45.627075 26.189312 0.000204
35 0.000076 0.000111 0.000153 -67.391380 50.270493 28.865049 0.000204
[Rope2_Seg02]
34 139.999741 -0.000060 -0.000119 -0.797391 -12.063337 6.001787 139.999756
35 139.999741 -0.000060 -0.000119 0.064293 -10.868117 3.677432 139.999756
[Rope2_Seg03]
34 140.000107 0.000030 0.000000 -1.454199 -12.504293 9.530562 140.000107
35 140.000107 0.000030 0.000000 -0.628510 -12.669858 5.761436 140.000107
[Rope2_Seg04]
34 139.999802 0.000000 -0.000060 -3.009628 -26.472546 7.468080 139.999802
35 139.999802 0.000000 -0.000060 -2.584768 -25.258057 7.251093 139.999802
[Rope2_Seg05]
34 139.999985 -0.000060 0.000119 -5.713037 -17.390297 0.024583 139.999985
35 139.999985 -0.000060 0.000119 -4.562649 -17.817327 1.739340 139.999985
[Rope2_Seg06]
34 139.999893 -0.000030 -0.000119 -2.838564 -6.117344 -0.054694 139.999893
35 139.999893 -0.000030 -0.000119 -2.303602 -6.141879 0.407640 139.999893
[Rope2_Seg07]
34 139.999893 0.000060 -0.000060 -2.006239 -3.415414 -0.200789 139.999893
35 139.999893 0.000060 -0.000060 -1.594499 -3.385592 0.098275 139.999893
[Rope2_Seg09]
34 121.338966 0.000089 -0.000060 33.793236 -1.359788 -0.847141 121.338966
35 121.338966 0.000089 -0.000060 33.793236 -1.359788 -0.847141 121.338966
[R_mid_hand01]
34 104.680779 11.144459 -10.335981 -47.384258 2.963522 5.452604 105.778534
35 104.680779 11.144459 -10.335981 -47.384258 2.963522 5.452604 105.778534
[R_mid_hand02]
34 104.070427 2.443552 8.231699 75.626297 -2.250001 1.111093 104.424065
35 104.070427 2.443552 8.231699 75.626297 -2.250001 1.111093 104.424065
[R_mid_hand03]
34 106.028137 -11.221827 -5.996406 -164.381912 2.495983 -6.140520 106.788818
35 106.028137 -11.221827 -5.996406 -164.381912 2.495983 -6.140520 106.788818
[spine02]
34 129.756927 0.001550 0.000119 -0.998155 -3.948404 6.281396 129.756927
35 129.756927 0.001550 0.000119 -0.958996 -3.955900 5.716812 129.756927
[spine03]
34 78.854446 0.045387 -2.550250 -0.561282 4.454032 -16.294243 78.895691
35 78.844337 0.047150 -2.648920 -0.520790 4.439387 -15.827645 78.888840
[pelvis]
34 169.435242 0.051022 0.000000 -3.194203 -1.703846 5.374784 169.435257
35 169.435242 0.051022 0.000000 -3.008703 -1.627981 4.958221 169.435257
[null_rope03_connect]
34 -1.257226 -2.466202 137.391083 115.350014 -85.694611 -10.661762 137.418976
35 -1.257226 -2.466202 137.391083 119.971397 -86.087135 -14.852996 137.418976
[null_rope04_connect]
34 -1.259640 -2.480268 -137.844437 115.350014 -85.694611 -10.661762 137.872513
35 -1.259640 -2.480268 -137.844437 119.971397 -86.087135 -14.852996 137.872513
[Rope3_Seg01]
34 0.000062 0.000056 0.000000 -136.596390 -30.636953 -69.672600 0.000084
35 0.000063 0.000053 0.000000 -137.604385 -32.134953 -68.440453 0.000082
[Rope3_Seg02]
34 139.999924 -0.000119 0.000060 -5.865961 2.027803 -19.923555 139.999924
35 139.999924 -0.000119 0.000060 -6.800653 2.885229 -20.305317 139.999924
[Rope3_Seg03]
34 139.999924 -0.000119 0.000119 -77.168076 13.520019 -71.733971 139.999924
35 139.999924 -0.000119 0.000119 -70.881477 16.648211 -65.952721 139.999924
[Rope3_Seg04]
34 139.999924 0.000119 0.000000 -27.130714 36.193829 -10.642652 139.999924
35 139.999924 0.000119 0.000000 -29.215078 35.665741 -14.057131 139.999924
[Rope3_Seg05]
34 139.999924 -0.000238 0.000060 -5.788301 21.251699 -0.138024 139.999924
35 139.999924 -0.000238 0.000060 -8.047439 25.287910 -2.634593 139.999924
[Rope3_Seg06]
34 139.999893 -0.000119 -0.000060 -0.531073 7.906909 1.115115 139.999893
35 139.999893 -0.000119 -0.000060 -0.747368 9.458839 0.723937 139.999893
[Rope3_Seg07]
34 139.999771 0.000060 -0.000119 0.229744 4.160612 0.692963 139.999771
35 139.999771 0.000060 -0.000119 0.221072 4.710346 0.520585 139.999771
[Rope3_Seg08]
34 139.999985 -0.000060 0.000000 0.444753 2.334746 0.381727 139.999985
35 139.999985 -0.000060 0.000000 0.458150 2.592335 0.279162 139.999985
[Rope3_Seg09]
34 90.185997 -0.000179 -0.000060 89.793228 -1.359877 -0.847183 90.185997
35 90.185997 -0.000179 -0.000060 89.793228 -1.359877 -0.847183 90.185997
[R_rear_hand01]
34 103.366196 -6.073594 -10.757982 -156.049316 6.070419 -2.795869 104.101845
35 103.366196 -6.073594 -10.757982 -156.049316 6.070419 -2.795869 104.101845
[R_rear_hand02]
34 100.509819 12.039542 -7.992327 -38.708435 1.958051 5.461186 101.543350
35 100.509819 12.039542 -7.992327 -38.708435 1.958051 5.461186 101.543350
[R_rear_hand03]
34 101.539970 5.215704 5.435467 84.307625 -2.361032 4.099037 101.819031
35 101.539970 5.215704 5.435467 84.307632 -2.361033 4.099038 101.819031
[Rope4_Seg01]
34 0.000000 -0.000045 -0.000056 46.120594 -14.172385 -98.110611 0.000071
35 0.000000 -0.000048 -0.000053 46.377060 -15.531981 -99.075020 0.000072
[Rope4_Seg02]
34 139.999985 0.000060 0.000119 9.995070 -52.427109 8.670265 139.999985
35 139.999985 0.000060 0.000119 9.481396 -50.241615 9.759117 139.999985
[Rope4_Seg03]
34 139.999924 0.000000 -0.000238 53.911457 -51.805729 30.685984 139.999924
35 139.999924 0.000000 -0.000238 49.632393 -49.755127 30.937031 139.999924
[Rope4_Seg04]
34 139.999985 0.000000 0.000119 20.071171 -1.545081 25.738960 139.999985
35 139.999985 0.000000 0.000119 19.479454 -3.036816 23.581589 139.999985
[Rope4_Seg05]
34 139.999802 -0.000060 -0.000119 11.283594 7.551139 28.265638 139.999802
35 139.999802 -0.000060 -0.000119 13.542599 5.692831 31.847813 139.999802
[Rope4_Seg06]
34 139.999924 0.000000 0.000060 1.621995 4.737405 9.957196 139.999924
35 139.999924 0.000000 0.000060 2.210629 5.482811 12.980877 139.999924
[Rope4_Seg07]
34 139.999802 0.000000 0.000000 0.413875 2.587501 5.093252 139.999802
35 139.999802 0.000000 0.000000 0.375554 2.790351 5.989736 139.999802
[Rope4_Seg08]
34 139.999924 0.000000 0.000119 -1.442481 1.442036 2.798340 139.999924
35 139.999924 0.000000 0.000119 -1.509703 1.513540 3.207303 139.999924
[Rope4_Seg09]
34 90.185791 0.000060 0.000060 -135.617828 2.228885 0.850567 90.185791
35 90.185791 0.000060 0.000060 -135.617828 2.228885 0.850567 90.185791
[L_rear_hand01]
34 101.696655 -8.392275 -7.654577 -38.746338 0.246096 177.290207 102.329041
35 101.696655 -8.392275 -7.654577 -38.746338 0.246096 177.290207 102.329041
[L_rear_hand02]
34 102.726799 -1.568258 5.773216 84.315163 -1.142796 176.247437 102.900848
35 102.726799 -1.568258 5.773216 84.315163 -1.142796 176.247437 102.900848
[L_rear_hand03]
34 104.552910 9.721220 -10.420293 -155.747955 -4.630845 179.564758 105.519653
35 104.552910 9.721220 -10.420293 -155.747955 -4.630845 179.564758 105.519653
